<svg width="16" height="18" viewBox="0 0 16 18" fill="none" xmlns="http://www.w3.org/2000/svg">
<rect y="2" width="16" height="16" rx="3" fill="url(#paint0_linear_22_6)"/>
<path d="M3.21094 16V4.28125H6.58594C8.02344 4.28125 9.25781 4.51562 10.2891 4.98438C11.3255 5.45312 12.1198 6.125 12.6719 7C13.2292 7.875 13.5078 8.92188 13.5078 10.1406C13.5078 11.3542 13.2292 12.401 12.6719 13.2812C12.1198 14.1562 11.3255 14.8281 10.2891 15.2969C9.25781 15.7656 8.02344 16 6.58594 16H3.21094ZM4.58594 14.7812H6.64844C7.79948 14.7812 8.78125 14.599 9.59375 14.2344C10.4062 13.8698 11.026 13.3411 11.4531 12.6484C11.8854 11.9557 12.1016 11.1198 12.1016 10.1406C12.1016 9.16146 11.8854 8.32552 11.4531 7.63281C11.026 6.9401 10.4062 6.41146 9.59375 6.04688C8.78125 5.68229 7.79948 5.5 6.64844 5.5H4.58594V14.7812Z" fill="#EAF2FF"/>
<defs>
<linearGradient id="paint0_linear_22_6" x1="8" y1="2" x2="8" y2="18" gradientUnits="userSpaceOnUse">
<stop stop-color="#3B82F6"/>
<stop offset="1" stop-color="#234C90" stop-opacity="0.75"/>
</linearGradient>
</defs>
</svg>
